{"accessors" : [{"bufferView" : 0, "byteOffset" : 0, "componentType" : 5123, "count" : 90, "type" : "SCALAR", "max" : [89], "min" : [0]}, {"bufferView" : 1, "byteOffset" : 0, "componentType" : 5126, "count" : 90, "type" : "VEC3", "max" : [1, 1, 0.019999999552965164], "min" : [-1, -1, -2], "name" : "POSITION"}, {"bufferView" : 1, "byteOffset" : 12, "componentType" : 5126, "count" : 90, "type" : "VEC3", "max" : [0.9596327543258667, 1.0000044107437134, 1.0000044107437134], "min" : [-0.9550683498382568, -0.9582919478416443, -1.0000044107437134], "name" : "NORMAL"}, {"bufferView" : 1, "byteOffset" : 24, "componentType" : 5126, "count" : 90, "type" : "VEC2", "max" : [0, 1], "min" : [0, 1], "name" : "TEXCOORD_0"}, {"bufferView" : 0, "byteOffset" : 180, "componentType" : 5123, "count" : 6, "type" : "SCALAR", "max" : [5], "min" : [0]}, {"bufferView" : 2, "byteOffset" : 0, "componentType" : 5126, "count" : 6, "type" : "VEC3", "max" : [-1, 1, -0], "min" : [-1, -1, -2], "name" : "POSITION"}, {"bufferView" : 2, "byteOffset" : 12, "componentType" : 5126, "count" : 6, "type" : "VEC3", "max" : [1.0000044107437134, 0, -0], "min" : [1.0000044107437134, 0, -0], "name" : "NORMAL"}, {"bufferView" : 2, "byteOffset" : 24, "componentType" : 5126, "count" : 6, "type" : "VEC2", "max" : [0, 1], "min" : [0, 1], "name" : "TEXCOORD_0"}, {"bufferView" : 0, "byteOffset" : 192, "componentType" : 5123, "count" : 6, "type" : "SCALAR", "max" : [5], "min" : [0]}, {"bufferView" : 3, "byteOffset" : 0, "componentType" : 5126, "count" : 6, "type" : "VEC3", "max" : [1, 1, -0], "min" : [1, -1, -2], "name" : "POSITION"}, {"bufferView" : 3, "byteOffset" : 12, "componentType" : 5126, "count" : 6, "type" : "VEC3", "max" : [-1.0000044107437134, 0, -0], "min" : [-1.0000044107437134, 0, -0], "name" : "NORMAL"}, {"bufferView" : 3, "byteOffset" : 24, "componentType" : 5126, "count" : 6, "type" : "VEC2", "max" : [0, 1], "min" : [0, 1], "name" : "TEXCOORD_0"}], "asset" : {"generator" : "Aspose.3D 22.1", "version" : "2.0"}, "buffers" : [{"uri" : "data:application/octet-stream;base64,", "byteLength" : 3484}], "bufferViews" : [{"buffer" : 0, "byteOffset" : 0, "byteLength" : 204, "target" : 34963}, {"buffer" : 0, "byteOffset" : 208, "byteLength" : 2880, "byteStride" : 32, "target" : 34962}, {"buffer" : 0, "byteOffset" : 3092, "byteLength" : 192, "byteStride" : 32, "target" : 34962}, {"buffer" : 0, "byteOffset" : 3288, "byteLength" : 192, "byteStride" : 32, "target" : 34962}], "materials" : [{"name" : "white", "pbrMetallicRoughness" : {"baseColorFactor" : [0.7250000238418579, 0.7099999785423279, 0.6800000071525574, 1], "metallicFactor" : 0, "roughnessFactor" : 1}, "emissiveFactor" : [0, 0, 0], "alphaMode" : "OPAQUE", "doubleSided" : false}, {"name" : "red", "pbrMetallicRoughness" : {"baseColorFactor" : [0.6299999952316284, 0.06499999761581421, 0.05000000074505806, 1], "metallicFactor" : 0, "roughnessFactor" : 1}, "emissiveFactor" : [0, 0, 0], "alphaMode" : "OPAQUE", "doubleSided" : false}, {"name" : "green", "pbrMetallicRoughness" : {"baseColorFactor" : [0.14000000059604645, 0.44999998807907104, 0.09099999815225601, 1], "metallicFactor" : 0, "roughnessFactor" : 1}, "emissiveFactor" : [0, 0, 0], "alphaMode" : "OPAQUE", "doubleSided" : false}], "meshes" : [{"primitives" : [{"attributes" : {"POSITION" : 1, "NORMAL" : 2, "TEXCOORD_0" : 3}, "indices" : 0, "material" : 0, "mode" : 4}, {"attributes" : {"POSITION" : 5, "NORMAL" : 6, "TEXCOORD_0" : 7}, "indices" : 4, "material" : 1, "mode" : 4}, {"attributes" : {"POSITION" : 9, "NORMAL" : 10, "TEXCOORD_0" : 11}, "indices" : 8, "material" : 2, "mode" : 4}]}], "nodes" : [{"matrix" : [1, 0, 0, 0, 0, 3.422854177870249E-08, 0.9999999657714582, 0, 0, -0.9999999657714582, 3.422854177870249E-08, 0, 0, 0, 0, 1], "mesh" : 0, "name" : "cornell"}], "scene" : 0, "scenes" : [{"nodes" : [0]}]}